<svg width="1600" height="900" viewBox="0 0 1600 900" fill="none" xmlns="http://www.w3.org/2000/svg">
  <rect width="1600" height="900" fill="#020603"/>
  <rect x="40" y="40" width="1520" height="820" stroke="#274433" stroke-width="2"/>
  <path d="M0 150H1600M0 450H1600M0 760H1600M520 0V900M1060 0V900" stroke="#11301F" stroke-opacity=".45"/>
  <text x="120" y="108" fill="#8DFFB4" font-family="'IBM Plex Mono', monospace" font-size="26" letter-spacing="8">[ TOPDOWN DOSSIER ]</text>
  <text x="120" y="240" fill="#EAF7EE" font-family="'Oxanium', monospace" font-size="82" letter-spacing="12">US10Y // PANELA DE PRESSAO</text>
  <text x="120" y="314" fill="#9AB8A3" font-family="'IBM Plex Mono', monospace" font-size="28" letter-spacing="4">RANGE HIGH COMPRESSES ENERGY FOR STRUCTURAL TEST</text>
  <rect x="120" y="380" width="570" height="262" rx="14" stroke="#365845"/>
  <text x="152" y="430" fill="#8DFFB4" font-family="'IBM Plex Mono', monospace" font-size="24" letter-spacing="6">LEVEL CODE</text>
  <text x="152" y="490" fill="#EAF7EE" font-family="'IBM Plex Mono', monospace" font-size="28">4.95%-5.02% // STRUCTURAL GATE</text>
  <text x="152" y="540" fill="#EAF7EE" font-family="'IBM Plex Mono', monospace" font-size="28">4.38%-4.42% // CONTROL SUPPORT</text>
  <text x="152" y="590" fill="#EAF7EE" font-family="'IBM Plex Mono', monospace" font-size="28">5.45%-6.05% // EXTENSION FIELD</text>
  <rect x="812" y="380" width="532" height="262" rx="14" stroke="#365845"/>
  <polyline points="848,598 930,560 1012,544 1092,486 1182,450 1262,384 1328,340" fill="none" stroke="#8DFFB4" stroke-width="7"/>
  <text x="848" y="430" fill="#8DFFB4" font-family="'IBM Plex Mono', monospace" font-size="24" letter-spacing="6">BIAS</text>
  <text x="848" y="688" fill="#9AB8A3" font-family="'IBM Plex Mono', monospace" font-size="24" letter-spacing="4">ABOVE 4.40% STRUCTURE STAYS CONSTRUCTIVE</text>
  <text x="120" y="792" fill="#9AB8A3" font-family="'IBM Plex Mono', monospace" font-size="24" letter-spacing="4">UPDATED 19.05.2026 // LIVE SYMBOL TVC:US10Y</text>
</svg>
